<mxfile host="app.diagrams.net" agent="Mozilla/5.0 (Windows NT 10.0; Win64; x64) AppleWebKit/537.36 (KHTML, like Gecko) Chrome/136.0.0.0 Safari/537.36" version="26.2.14">
  <diagram name="Page-1" id="3WrCtMFRqj1QOnCrlEEc">
    <mxGraphModel dx="815" dy="429" grid="1" gridSize="10" guides="1" tooltips="1" connect="1" arrows="1" fold="1" page="1" pageScale="1" pageWidth="850" pageHeight="1100" background="light-dark(#FFFFFF,#FFFFFF)" math="0" shadow="0">
      <root>
        <mxCell id="0" />
        <mxCell id="1" parent="0" />
        <mxCell id="1eNqCUqUD9JuJW1qk43Z-7" value="&lt;font face=&quot;Helvetica&quot; style=&quot;color: light-dark(rgb(0, 0, 0), rgb(0, 0, 0)); font-size: 14px;&quot;&gt;Autore&lt;/font&gt;" style="shape=umlActor;verticalLabelPosition=bottom;verticalAlign=top;html=1;outlineConnect=0;strokeColor=light-dark(#000000,#000000);fillColor=light-dark(#FFFFC6,#FDF89C);" parent="1" vertex="1">
          <mxGeometry x="530" y="341" width="30" height="60" as="geometry" />
        </mxCell>
        <mxCell id="1eNqCUqUD9JuJW1qk43Z-16" value="&lt;font face=&quot;Helvetica&quot; style=&quot;color: light-dark(rgb(0, 0, 0), rgb(0, 0, 0)); font-size: 14px;&quot;&gt;Chair&lt;/font&gt;" style="shape=umlActor;verticalLabelPosition=bottom;verticalAlign=top;html=1;outlineConnect=0;strokeColor=light-dark(#000000,#000000);fillColor=light-dark(#FFFFC6,#FDF89C);" parent="1" vertex="1">
          <mxGeometry x="300" y="341" width="30" height="60" as="geometry" />
        </mxCell>
        <mxCell id="1eNqCUqUD9JuJW1qk43Z-17" value="&lt;font face=&quot;Helvetica&quot; style=&quot;color: light-dark(rgb(0, 0, 0), rgb(0, 0, 0)); font-size: 14px;&quot;&gt;Revisore&lt;/font&gt;" style="shape=umlActor;verticalLabelPosition=bottom;verticalAlign=top;html=1;outlineConnect=0;strokeColor=light-dark(#000000,#000000);fillColor=light-dark(#FFFFC6,#FDF89C);" parent="1" vertex="1">
          <mxGeometry x="250" y="421" width="30" height="60" as="geometry" />
        </mxCell>
        <mxCell id="1eNqCUqUD9JuJW1qk43Z-18" value="&lt;font face=&quot;Helvetica&quot; style=&quot;color: light-dark(rgb(0, 0, 0), rgb(0, 0, 0)); font-size: 14px;&quot;&gt;Sotto-Revisore&lt;/font&gt;" style="shape=umlActor;verticalLabelPosition=bottom;verticalAlign=top;html=1;outlineConnect=0;strokeColor=light-dark(#000000,#000000);fillColor=light-dark(#FFFFC6,#FDF89C);" parent="1" vertex="1">
          <mxGeometry x="530" y="481" width="30" height="60" as="geometry" />
        </mxCell>
        <mxCell id="1eNqCUqUD9JuJW1qk43Z-19" value="&lt;font style=&quot;color: light-dark(rgb(0, 0, 0), rgb(0, 0, 0)); font-size: 14px;&quot;&gt;Utente&lt;/font&gt;" style="shape=umlActor;verticalLabelPosition=bottom;verticalAlign=top;html=1;outlineConnect=0;strokeColor=light-dark(#000000,#000000);fillColor=light-dark(#FFFFC6,#FDF89C);" parent="1" vertex="1">
          <mxGeometry x="405" y="433" width="30" height="60" as="geometry" />
        </mxCell>
        <mxCell id="1eNqCUqUD9JuJW1qk43Z-32" value="&lt;font face=&quot;Helvetica&quot; style=&quot;color: light-dark(rgb(0, 0, 0), rgb(0, 0, 0)); font-size: 14px;&quot;&gt;DBMS&lt;/font&gt;" style="shape=umlActor;verticalLabelPosition=bottom;verticalAlign=top;html=1;outlineConnect=0;strokeColor=light-dark(#000000,#000000);fillColor=light-dark(#FFFFC6,#FDF89C);" parent="1" vertex="1">
          <mxGeometry x="630" y="341.5" width="30" height="60" as="geometry" />
        </mxCell>
        <mxCell id="1eNqCUqUD9JuJW1qk43Z-33" value="&lt;font style=&quot;color: light-dark(rgb(0, 0, 0), rgb(0, 0, 0)); font-size: 14px;&quot;&gt;Tempo&lt;/font&gt;" style="shape=umlActor;verticalLabelPosition=bottom;verticalAlign=top;html=1;outlineConnect=0;strokeColor=light-dark(#000000,#000000);fillColor=light-dark(#FFFFC6,#FDF89C);" parent="1" vertex="1">
          <mxGeometry x="630" y="480.5" width="30" height="60" as="geometry" />
        </mxCell>
        <mxCell id="zpWcOhDEUucsBWKw6AgS-9" value="" style="endArrow=block;html=1;rounded=0;strokeColor=light-dark(#000000,#000000);endFill=0;strokeWidth=1;startSize=6;jumpSize=6;targetPerimeterSpacing=0;endSize=6;exitX=0.5;exitY=0.5;exitDx=0;exitDy=0;exitPerimeter=0;" parent="1" source="1eNqCUqUD9JuJW1qk43Z-16" edge="1">
          <mxGeometry width="50" height="50" relative="1" as="geometry">
            <mxPoint x="285" y="273" as="sourcePoint" />
            <mxPoint x="400" y="443" as="targetPoint" />
            <Array as="points" />
          </mxGeometry>
        </mxCell>
        <mxCell id="98LWMvd4IPuDJMi_CzUe-3" value="" style="endArrow=block;html=1;rounded=0;strokeColor=light-dark(#000000,#000000);endFill=0;strokeWidth=1;startSize=6;jumpSize=6;targetPerimeterSpacing=0;endSize=6;exitX=0.5;exitY=0.5;exitDx=0;exitDy=0;exitPerimeter=0;entryX=0.455;entryY=0.597;entryDx=0;entryDy=0;entryPerimeter=0;" parent="1" source="1eNqCUqUD9JuJW1qk43Z-18" edge="1">
          <mxGeometry width="50" height="50" relative="1" as="geometry">
            <mxPoint x="380" y="393" as="sourcePoint" />
            <mxPoint x="440.22" y="460.90599999999995" as="targetPoint" />
            <Array as="points" />
          </mxGeometry>
        </mxCell>
        <mxCell id="98LWMvd4IPuDJMi_CzUe-4" value="" style="endArrow=block;html=1;rounded=0;strokeColor=light-dark(#000000,#000000);endFill=0;strokeWidth=1;startSize=6;jumpSize=6;targetPerimeterSpacing=0;endSize=6;exitX=0.5;exitY=0.5;exitDx=0;exitDy=0;exitPerimeter=0;" parent="1" source="1eNqCUqUD9JuJW1qk43Z-7" edge="1">
          <mxGeometry width="50" height="50" relative="1" as="geometry">
            <mxPoint x="550" y="323" as="sourcePoint" />
            <mxPoint x="440" y="443" as="targetPoint" />
            <Array as="points" />
          </mxGeometry>
        </mxCell>
        <mxCell id="98LWMvd4IPuDJMi_CzUe-6" value="Vista Attori" style="shape=umlFrame;whiteSpace=wrap;html=1;pointerEvents=0;strokeColor=light-dark(#000000,#000000);width=76;height=28;" parent="1" vertex="1">
          <mxGeometry x="220" y="292" width="484" height="298" as="geometry" />
        </mxCell>
        <mxCell id="dRENTJnG8uk9-5JoFx0h-1" value="&lt;font face=&quot;Helvetica&quot; style=&quot;color: light-dark(rgb(0, 0, 0), rgb(0, 0, 0)); font-size: 14px;&quot;&gt;Editore&lt;/font&gt;" style="shape=umlActor;verticalLabelPosition=bottom;verticalAlign=top;html=1;outlineConnect=0;strokeColor=light-dark(#000000,#000000);fillColor=light-dark(#FFFFC6,#FDF89C);" parent="1" vertex="1">
          <mxGeometry x="300" y="481" width="30" height="60" as="geometry" />
        </mxCell>
        <mxCell id="dRENTJnG8uk9-5JoFx0h-5" value="" style="endArrow=block;html=1;rounded=0;strokeColor=light-dark(#000000,#000000);endFill=0;strokeWidth=1;startSize=6;jumpSize=6;targetPerimeterSpacing=0;endSize=6;exitX=0.5;exitY=0.5;exitDx=0;exitDy=0;exitPerimeter=0;" parent="1" source="1eNqCUqUD9JuJW1qk43Z-17" edge="1">
          <mxGeometry width="50" height="50" relative="1" as="geometry">
            <mxPoint x="425" y="392.8" as="sourcePoint" />
            <mxPoint x="390" y="451" as="targetPoint" />
            <Array as="points" />
          </mxGeometry>
        </mxCell>
        <mxCell id="x0cqDVkWvaCe46pxQase-1" value="" style="endArrow=block;html=1;rounded=0;strokeColor=light-dark(#000000,#000000);endFill=0;strokeWidth=1;startSize=6;jumpSize=6;targetPerimeterSpacing=0;endSize=6;exitX=0.5;exitY=0.5;exitDx=0;exitDy=0;exitPerimeter=0;entryX=0.372;entryY=0.665;entryDx=0;entryDy=0;entryPerimeter=0;" edge="1" parent="1" source="dRENTJnG8uk9-5JoFx0h-1">
          <mxGeometry width="50" height="50" relative="1" as="geometry">
            <mxPoint x="524.5" y="323" as="sourcePoint" />
            <mxPoint x="400.048" y="461.1199999999999" as="targetPoint" />
            <Array as="points" />
          </mxGeometry>
        </mxCell>
      </root>
    </mxGraphModel>
  </diagram>
</mxfile>
